<svg width="500" height="500" viewBox="0 0 500 500" fill="none" xmlns="http://www.w3.org/2000/svg">
<path fill-rule="evenodd" clip-rule="evenodd" d="M290.445 460.207C290.445 462.157 290.256 464.058 289.961 465.926C289.924 466.164 289.896 466.396 289.855 466.627C286.802 484.164 271.509 497.546 253.113 497.546C236.71 497.546 222.779 486.894 217.777 472.159L62.4422 382.486C47.0378 373.592 37.5544 357.152 37.5544 339.378V188.332C43.3081 190.281 49.4433 191.385 55.856 191.385C61.6097 191.385 67.1608 190.512 72.3998 188.928V339.378C72.3998 344.691 75.2562 349.641 79.8707 352.302L224.774 435.961C231.627 427.965 241.774 422.871 253.113 422.871C265.449 422.871 276.364 428.901 283.171 438.148C283.293 438.316 283.419 438.477 283.541 438.645C284.016 439.32 284.468 440.009 284.901 440.721C285.067 440.993 285.235 441.258 285.396 441.537C285.779 442.189 286.131 442.859 286.472 443.537C286.659 443.901 286.832 444.265 287 444.636C287.295 445.265 287.567 445.901 287.825 446.548C288.012 447.012 288.173 447.475 288.341 447.942C288.548 448.532 288.751 449.129 288.924 449.73C289.099 450.309 289.226 450.887 289.371 451.459C289.502 452.002 289.641 452.539 289.747 453.09C289.892 453.811 289.984 454.542 290.088 455.274C290.138 455.721 290.226 456.143 290.267 456.583C290.376 457.779 290.445 458.982 290.445 460.207ZM481.482 134.139C481.482 145.34 476.509 155.378 468.668 162.224V339.378C468.668 357.152 459.189 373.592 443.779 382.486L310.325 459.532C310.175 446.924 305.915 435.32 298.848 425.917L426.357 352.302C430.965 349.641 433.823 344.691 433.823 339.378V169.991C418.251 165.503 406.811 151.145 406.811 134.139C406.811 125.858 409.56 118.226 414.138 112.032C414.203 111.934 414.279 111.836 414.353 111.738C415.214 110.593 416.141 109.488 417.127 108.447L417.26 108.303C419.309 106.169 421.599 104.295 424.097 102.694C424.357 102.526 424.627 102.376 424.894 102.208C425.883 101.618 426.894 101.057 427.935 100.555C428.242 100.41 428.548 100.254 428.862 100.115C430.161 99.5249 431.505 98.9813 432.885 98.5537C432.892 98.5537 432.892 98.5537 432.892 98.5482C436.447 97.4203 440.224 96.8018 444.15 96.8018C464.74 96.8018 481.482 113.547 481.482 134.139ZM37.5544 166.648C26.2092 160.235 18.5186 148.075 18.5186 134.139C18.5186 113.547 35.2648 96.8018 55.856 96.8018C61.1933 96.8018 66.2588 97.9518 70.8558 99.9758L228.221 9.12154C235.917 4.67481 244.521 2.45435 253.108 2.45435C261.707 2.45435 270.306 4.67481 278.002 9.12154L412.242 86.63C402.366 93.2917 394.717 102.971 390.518 114.311L260.578 39.3002C258.311 37.9878 255.728 37.2995 253.108 37.2995C250.495 37.2995 247.915 37.9878 245.643 39.3002L92.5922 127.668C92.962 129.773 93.188 131.924 93.188 134.139C93.188 150.203 82.9701 163.89 68.7106 169.146C68.6007 169.187 68.485 169.233 68.3809 169.268C67.2417 169.667 66.1025 170.019 64.9288 170.314C64.6917 170.372 64.4604 170.442 64.2233 170.488C63.1477 170.736 62.0491 170.933 60.9447 171.089C60.644 171.129 60.3491 171.187 60.0426 171.222C58.6664 171.378 57.2728 171.477 55.856 171.477C54.3353 171.477 52.8376 171.355 51.3571 171.176C50.9641 171.129 50.5765 171.06 50.1777 170.996C49.0442 170.823 47.9341 170.604 46.8295 170.326C46.4942 170.239 46.153 170.164 45.812 170.066C42.9032 169.244 40.1334 168.106 37.5544 166.648Z" fill="#FF3E00"/>
<g clip-path="url(#clip0_5_2)">
<path d="M352.229 139.488C326.674 102.766 275.797 92.0068 239.222 115.163L174.747 156.329C157.163 167.322 144.971 185.332 141.455 205.681C138.407 222.756 140.986 240.298 149.192 255.502C143.565 263.922 139.813 273.278 138.172 283.102C134.421 303.919 139.345 325.437 151.536 342.512C177.326 379.234 227.968 389.993 264.543 366.837L329.018 325.905C346.602 314.912 358.794 296.902 362.311 276.553C365.359 259.478 362.78 241.936 354.574 226.732C360.201 218.312 363.952 208.956 365.593 199.132C369.579 178.081 364.655 156.563 352.229 139.488Z" fill="#FF3E00"/>
<path d="M232.892 346.02C212.025 351.4 190.221 343.214 178.03 325.671C170.527 315.38 167.714 302.515 169.824 289.885C170.293 287.78 170.761 285.908 171.23 283.803L172.403 280.061L175.685 282.4C183.422 288.014 191.862 292.224 201.006 295.031L203.351 295.732L203.116 298.071C202.882 301.346 203.82 304.854 205.695 307.661C209.446 313.041 216.011 315.614 222.341 313.976C223.748 313.508 225.155 313.041 226.327 312.339L290.568 271.407C293.85 269.302 295.96 266.261 296.664 262.519C297.367 258.776 296.429 254.8 294.319 251.759C290.568 246.38 284.003 244.041 277.673 245.678C276.266 246.146 274.859 246.614 273.687 247.315L249.069 262.986C245.084 265.559 240.629 267.431 235.94 268.6C215.073 273.98 193.269 265.793 181.077 248.251C173.809 237.959 170.761 225.095 173.106 212.464C175.216 200.302 182.719 189.308 193.269 182.759L257.744 141.827C261.73 139.254 266.184 137.383 270.874 135.98C291.74 130.6 313.544 138.786 325.736 156.329C333.239 166.62 336.052 179.485 333.942 192.115C333.473 194.22 333.004 196.092 332.301 198.197L331.128 201.939L327.846 199.6C320.109 193.986 311.669 189.776 302.525 186.969L300.18 186.268L300.415 183.929C300.649 180.654 299.712 177.146 297.836 174.339C294.085 168.959 287.52 166.62 281.19 168.258C279.783 168.725 278.376 169.193 277.204 169.895L212.963 210.827C209.681 212.932 207.571 215.973 206.867 219.715C206.164 223.458 207.102 227.434 209.212 230.475C212.963 235.854 219.528 238.193 225.858 236.556C227.265 236.088 228.672 235.62 229.844 234.919L254.462 219.247C258.447 216.675 262.902 214.803 267.591 213.4C288.458 208.02 310.262 216.207 322.454 233.749C329.956 244.041 332.77 256.905 330.66 269.536C328.549 281.698 321.047 292.692 310.496 299.241L246.021 340.173C242.036 342.746 237.581 344.617 232.892 346.02Z" fill="white"/>
</g>
<defs>
<clipPath id="clip0_5_2">
<rect width="230" height="276" fill="white" transform="translate(137 103)"/>
</clipPath>
</defs>
</svg>
